<?xml version="1.0" encoding="utf-8"?>
<!-- Generator: Adobe Illustrator 15.0.0, SVG Export Plug-In  -->
<!DOCTYPE svg PUBLIC "-//W3C//DTD SVG 1.1//EN" "http://www.w3.org/Graphics/SVG/1.1/DTD/svg11.dtd" [
	<!ENTITY ns_flows "http://ns.adobe.com/Flows/1.0/">
]>
<svg version="1.1"
	 xmlns="http://www.w3.org/2000/svg" xmlns:xlink="http://www.w3.org/1999/xlink" xmlns:a="http://ns.adobe.com/AdobeSVGViewerExtensions/3.0/"
	 x="0px" y="0px" width="170px" height="173px" viewBox="-2.72 -9.474 170 173" enable-background="new -2.72 -9.474 170 173"
	 xml:space="preserve">
<defs>
</defs>
<path fill="#002B64" d="M43.071,63.123c0.004,0.04,0.004,0.078,0.004,0.119c0,0.03,0,0.062,0.005,0.092c0,0.042,0,0.083,0,0.125
	c0.009,0.113,0.014,0.224,0.019,0.335c0.004,0.027,0.009,0.055,0.009,0.081c0,0.022,0.005,0.044,0.005,0.066
	c0.004,0.062,0.009,0.124,0.014,0.186c0.009,0.108,0.019,0.216,0.033,0.326c0,0.012,0.005,0.024,0.005,0.038
	c0,0.021,0.004,0.039,0.009,0.06c0.005,0.075,0.014,0.15,0.023,0.225c0.019,0.106,0.033,0.213,0.051,0.32
	c0.014,0.107,0.038,0.213,0.056,0.319c0.014,0.085,0.033,0.169,0.046,0.252c0.004,0.014,0.004,0.026,0.009,0.039
	c0,0.008,0,0.016,0.004,0.024c0.023,0.104,0.042,0.208,0.07,0.313c0.014,0.062,0.028,0.123,0.046,0.184
	c0.005,0.022,0.009,0.045,0.014,0.07c0.005,0.02,0.009,0.037,0.014,0.056c0.027,0.104,0.055,0.207,0.083,0.309
	c0.014,0.044,0.028,0.089,0.042,0.133c0.004,0.015,0.004,0.028,0.009,0.042c0.005,0.013,0.009,0.023,0.009,0.034
	c0.014,0.034,0.023,0.066,0.032,0.099c0.033,0.103,0.065,0.204,0.098,0.306c0.014,0.032,0.023,0.062,0.037,0.094
	c0.01,0.024,0.014,0.048,0.023,0.073c0.019,0.045,0.033,0.091,0.051,0.136c0.038,0.101,0.075,0.199,0.117,0.298
	c0.004,0.018,0.014,0.034,0.019,0.053c0.009,0.025,0.023,0.05,0.033,0.075c0.028,0.06,0.046,0.121,0.075,0.18
	c0.046,0.101,0.088,0.203,0.135,0.303c0,0,0,0.001,0.005,0.002c0,0.011,0.009,0.021,0.014,0.031
	c0.042,0.089,0.084,0.177,0.126,0.265c0.033,0.064,0.069,0.128,0.102,0.192c0.009,0.023,0.023,0.048,0.033,0.07
	c0.009,0.012,0.014,0.022,0.019,0.033c0.056,0.104,0.112,0.208,0.172,0.309c0.019,0.035,0.042,0.069,0.065,0.104
	c0.014,0.03,0.033,0.06,0.051,0.091c0.019,0.035,0.038,0.071,0.065,0.106c0.061,0.1,0.121,0.199,0.187,0.299
	c0.009,0.01,0.014,0.02,0.023,0.03c0.009,0.021,0.023,0.04,0.037,0.058c0.047,0.068,0.093,0.137,0.14,0.204
	c0.042,0.062,0.084,0.121,0.125,0.18c0.014,0.017,0.028,0.033,0.038,0.048c0.004,0.01,0.014,0.02,0.023,0.029
	c0.023,0.034,0.046,0.068,0.075,0.103c0.042,0.061,0.088,0.118,0.135,0.177c0.046,0.06,0.093,0.118,0.14,0.175l12.478,15.296
	c-0.126-0.152-0.252-0.312-0.368-0.472c-0.004-0.008-0.014-0.018-0.019-0.023c-0.112-0.147-0.214-0.296-0.321-0.45
	c-0.014-0.019-0.023-0.036-0.038-0.056c-0.102-0.148-0.2-0.302-0.293-0.454c-0.019-0.029-0.037-0.059-0.056-0.086
	c-0.093-0.153-0.187-0.308-0.271-0.461c-0.014-0.023-0.023-0.047-0.037-0.064c-0.089-0.163-0.172-0.323-0.256-0.486
	c-0.005-0.002-0.005-0.008-0.005-0.012c-0.083-0.168-0.163-0.335-0.242-0.503c-0.009-0.023-0.019-0.047-0.033-0.07
	c-0.07-0.165-0.145-0.333-0.209-0.498c-0.01-0.025-0.019-0.049-0.033-0.072c-0.065-0.169-0.13-0.343-0.186-0.514
	c-0.009-0.02-0.019-0.043-0.028-0.066c-0.056-0.172-0.112-0.345-0.168-0.516c-0.004-0.02-0.009-0.037-0.014-0.057
	c-0.056-0.178-0.103-0.354-0.149-0.536c-0.005-0.014-0.014-0.028-0.014-0.046c-0.047-0.182-0.089-0.362-0.13-0.55
	c-0.005-0.004-0.005-0.01-0.005-0.014c-0.042-0.187-0.075-0.372-0.112-0.561c0-0.02-0.005-0.037-0.009-0.059
	c-0.028-0.179-0.056-0.358-0.084-0.539c-0.005-0.029-0.009-0.059-0.009-0.088c-0.028-0.179-0.047-0.36-0.065-0.541
	c0-0.029-0.01-0.057-0.01-0.084c-0.019-0.183-0.032-0.368-0.042-0.555c0-0.027,0-0.053-0.004-0.084
	c-0.009-0.188-0.019-0.377-0.023-0.57c0-0.016,0-0.033,0-0.049c-0.005-0.189-0.005-0.379,0-0.57c0-0.012,0-0.023,0-0.035
	c0-0.187,0.009-0.372,0.019-0.561c0-0.041,0.005-0.082,0.005-0.123c0.009-0.183,0.023-0.364,0.037-0.549
	c0.005-0.035,0.009-0.072,0.009-0.109c0.019-0.171,0.032-0.344,0.056-0.517c0.005-0.03,0.005-0.058,0.009-0.088
	c0.023-0.189,0.052-0.377,0.08-0.567c0.005-0.048,0.014-0.097,0.019-0.144c0.032-0.187,0.065-0.374,0.098-0.562
	c0-0.009,0.005-0.019,0.009-0.028c0-0.001,0-0.002,0-0.005c0.038-0.197,0.074-0.396,0.121-0.593c0.014-0.06,0.028-0.118,0.042-0.176
	c0.033-0.148,0.065-0.297,0.102-0.445c0.014-0.062,0.033-0.121,0.047-0.183c0.051-0.197,0.102-0.393,0.163-0.591
	c0-0.002,0-0.006,0-0.006c0.065-0.223,0.13-0.444,0.2-0.667c0.009-0.023,0.019-0.045,0.027-0.069
	c0.061-0.196,0.131-0.395,0.196-0.592c0.028-0.08,0.061-0.161,0.089-0.238c0.051-0.145,0.107-0.289,0.163-0.432
	c0.028-0.082,0.065-0.165,0.097-0.246c0.052-0.144,0.112-0.286,0.168-0.431c0.019-0.039,0.033-0.076,0.051-0.114
	c0.074-0.171,0.144-0.342,0.223-0.513c0.028-0.061,0.056-0.124,0.084-0.184c0.07-0.155,0.14-0.31,0.219-0.464
	c0.023-0.06,0.051-0.121,0.084-0.18c0.098-0.207,0.205-0.417,0.312-0.624c0.177-0.34,0.358-0.674,0.545-1.007
	c0.06-0.104,0.121-0.207,0.181-0.309c0.131-0.231,0.266-0.46,0.405-0.687c0.069-0.115,0.144-0.229,0.214-0.345
	c0.14-0.216,0.279-0.433,0.423-0.646c0.074-0.111,0.145-0.223,0.223-0.334c0.154-0.226,0.312-0.449,0.471-0.673
	c0.07-0.091,0.13-0.184,0.2-0.275c0.456-0.625,0.936-1.235,1.438-1.831c0.075-0.093,0.154-0.181,0.233-0.271
	c0.187-0.22,0.377-0.439,0.568-0.653c0.051-0.06,0.107-0.118,0.158-0.176c0.247-0.27,0.494-0.538,0.75-0.802
	c0.042-0.043,0.083-0.087,0.125-0.13c0.228-0.238,0.466-0.473,0.703-0.706c0.046-0.044,0.093-0.089,0.135-0.134
	c0.27-0.264,0.549-0.525,0.829-0.782c0.023-0.02,0.046-0.04,0.065-0.061c0.298-0.272,0.601-0.54,0.908-0.804
	c0.004-0.007,0.014-0.014,0.023-0.021c0.308-0.265,0.624-0.527,0.94-0.787c0.019-0.015,0.038-0.028,0.056-0.043
	c0.312-0.255,0.633-0.506,0.955-0.752c0.009-0.004,0.014-0.009,0.019-0.014c0.326-0.248,0.657-0.491,0.987-0.729
	c0.018-0.014,0.037-0.027,0.056-0.041c0.331-0.235,0.656-0.464,0.992-0.69c0.023-0.013,0.042-0.026,0.061-0.038
	c0.335-0.226,0.675-0.448,1.015-0.663c0.019-0.012,0.033-0.021,0.051-0.031c0.345-0.219,0.689-0.432,1.038-0.642
	c0.014-0.005,0.023-0.01,0.033-0.018c0.359-0.209,0.717-0.417,1.081-0.618c0.009-0.005,0.014-0.007,0.018-0.012
	c0.368-0.202,0.736-0.4,1.108-0.592c0.004-0.002,0.009-0.005,0.014-0.007c0.373-0.193,0.75-0.382,1.132-0.563
	c0-0.001,0-0.001,0-0.001c0.386-0.185,0.768-0.363,1.155-0.535l0,0c0.768-0.341,1.55-0.659,2.332-0.954
	c0.01-0.003,0.019-0.007,0.023-0.01c0.377-0.141,0.755-0.274,1.131-0.403c0.033-0.01,0.065-0.022,0.094-0.032
	c0.381-0.129,0.768-0.252,1.154-0.37c0.009-0.004,0.023-0.008,0.037-0.013c0.382-0.114,0.759-0.223,1.146-0.326
	c0.033-0.009,0.065-0.019,0.102-0.028c0.382-0.101,0.764-0.198,1.146-0.288c0.019-0.003,0.033-0.007,0.052-0.012
	c0.373-0.086,0.749-0.167,1.126-0.241c0.051-0.01,0.098-0.021,0.154-0.031c0.363-0.071,0.726-0.136,1.099-0.196
	c0.051-0.009,0.112-0.019,0.167-0.027c0.382-0.06,0.764-0.115,1.146-0.163c0.009,0,0.014-0.001,0.023-0.001
	c0.363-0.045,0.726-0.081,1.089-0.113c0.088-0.008,0.177-0.016,0.27-0.023c0.368-0.03,0.74-0.056,1.108-0.073
	c2.216-0.1,4.297,0.041,6.216,0.4c1.951,0.366,3.734,0.957,5.331,1.753c1.62,0.812,3.05,1.834,4.246,3.046
	c1.039,1.058,1.899,2.259,2.565,3.586l0.624,1.429l51.639-13.332l-3.482-21.249l-56.015,16.445c-0.098-0.236-0.201-0.474-0.308-0.71
	c-0.67-1.548-1.643-2.91-2.886-4.058c-1.215-1.125-2.677-2.047-4.363-2.746c-1.644-0.686-3.506-1.158-5.54-1.396
	c-1.998-0.235-4.181-0.245-6.509-0.009c-0.293,0.029-0.591,0.062-0.885,0.099c-0.093,0.012-0.191,0.027-0.284,0.04
	c-0.098,0.011-0.191,0.025-0.284,0.04c-0.107,0.013-0.209,0.027-0.312,0.042c-0.279,0.042-0.563,0.086-0.842,0.135
	c-0.005,0-0.01,0.002-0.019,0.003c-0.004,0.001-0.014,0.001-0.019,0.002c-0.293,0.05-0.586,0.104-0.88,0.162
	c-0.102,0.019-0.209,0.042-0.316,0.064c-0.056,0.012-0.112,0.023-0.172,0.035c-0.079,0.018-0.163,0.033-0.237,0.05
	c-0.247,0.052-0.489,0.106-0.736,0.163c-0.06,0.015-0.125,0.031-0.19,0.047c-0.051,0.012-0.103,0.024-0.158,0.036
	c-0.122,0.031-0.252,0.062-0.377,0.093c-0.242,0.061-0.484,0.125-0.726,0.19c-0.033,0.008-0.061,0.018-0.093,0.024
	c-0.014,0.006-0.033,0.011-0.051,0.015c-0.145,0.04-0.284,0.078-0.428,0.119c-0.191,0.055-0.377,0.11-0.568,0.167
	c-0.07,0.021-0.145,0.044-0.214,0.066c-0.038,0.011-0.079,0.021-0.116,0.034c-0.08,0.024-0.159,0.047-0.238,0.073
	c-0.187,0.059-0.377,0.119-0.563,0.181c-0.14,0.043-0.27,0.089-0.406,0.134c-0.019,0.006-0.032,0.012-0.046,0.015
	c-0.019,0.007-0.038,0.013-0.051,0.018c-0.168,0.057-0.34,0.116-0.503,0.175c-0.168,0.058-0.335,0.117-0.499,0.177
	c-0.06,0.022-0.116,0.044-0.172,0.064c-0.019,0.005-0.033,0.011-0.046,0.016c-0.019,0.007-0.038,0.014-0.052,0.021
	c-0.075,0.028-0.153,0.055-0.233,0.084c-0.153,0.058-0.307,0.116-0.456,0.177c-0.154,0.059-0.312,0.119-0.461,0.18
	c-0.019,0.007-0.033,0.013-0.051,0.02c-0.014,0.006-0.023,0.01-0.037,0.015c-0.126,0.05-0.247,0.101-0.373,0.15
	c-0.149,0.063-0.302,0.126-0.456,0.191c-0.135,0.057-0.27,0.115-0.405,0.173l0,0c-0.009,0.003-0.019,0.007-0.023,0.01
	c-0.145,0.063-0.289,0.125-0.434,0.189c-0.144,0.063-0.284,0.129-0.428,0.193c-0.117,0.054-0.238,0.108-0.354,0.163
	c-0.005,0.002-0.01,0.003-0.014,0.005c-0.023,0.01-0.042,0.019-0.06,0.029c-0.14,0.064-0.28,0.129-0.419,0.196
	c-0.135,0.065-0.274,0.131-0.414,0.199c-0.112,0.054-0.219,0.109-0.331,0.163c-0.005,0.002-0.01,0.004-0.01,0.006
	c-0.023,0.01-0.046,0.023-0.07,0.034c-0.14,0.069-0.274,0.138-0.41,0.208c-0.14,0.069-0.274,0.138-0.409,0.208
	c-0.107,0.056-0.219,0.113-0.326,0.171c0,0-0.005,0.002-0.005,0.005c-0.023,0.012-0.051,0.024-0.075,0.036
	c-0.13,0.072-0.27,0.145-0.4,0.215c-0.135,0.074-0.271,0.147-0.401,0.22c-0.102,0.056-0.205,0.113-0.307,0.17
	c-0.014,0.007-0.028,0.015-0.037,0.022c-0.023,0.01-0.042,0.021-0.061,0.032c-0.131,0.075-0.266,0.15-0.396,0.227
	c-0.135,0.077-0.27,0.152-0.4,0.231c-0.103,0.059-0.201,0.117-0.298,0.177c-0.014,0.005-0.023,0.012-0.032,0.02
	c-0.023,0.012-0.047,0.024-0.065,0.037c-0.135,0.081-0.265,0.161-0.4,0.243c-0.135,0.081-0.266,0.163-0.4,0.245
	c-0.088,0.055-0.177,0.11-0.261,0.164c-0.009,0.007-0.023,0.013-0.033,0.02c-0.004,0.004-0.014,0.01-0.023,0.014
	c-0.028,0.017-0.051,0.034-0.079,0.05c-0.131,0.084-0.261,0.167-0.392,0.252c-0.135,0.087-0.274,0.176-0.409,0.264
	c-0.075,0.049-0.149,0.099-0.224,0.149c-0.014,0.009-0.033,0.02-0.047,0.032c-0.042,0.028-0.088,0.057-0.13,0.086
	c-0.135,0.089-0.265,0.179-0.4,0.27c-0.131,0.091-0.266,0.184-0.396,0.275c-0.052,0.036-0.107,0.073-0.154,0.108
	c-0.023,0.014-0.042,0.029-0.061,0.042c-0.065,0.048-0.14,0.097-0.205,0.144c-0.14,0.1-0.28,0.198-0.415,0.299
	c-0.139,0.101-0.274,0.201-0.409,0.301c-0.019,0.013-0.033,0.024-0.051,0.036c0,0.001-0.005,0.003-0.005,0.003
	c-0.121,0.09-0.237,0.178-0.354,0.268c-0.153,0.113-0.298,0.225-0.447,0.339c-0.083,0.065-0.167,0.131-0.251,0.199
	c-0.019,0.013-0.037,0.027-0.051,0.039c-0.046,0.036-0.093,0.071-0.14,0.105c-0.144,0.116-0.289,0.233-0.433,0.35
	c-0.145,0.117-0.289,0.234-0.434,0.352c-0.009,0.009-0.018,0.018-0.032,0.025c-0.004,0.007-0.014,0.016-0.023,0.022
	c-0.149,0.122-0.293,0.244-0.442,0.368c-0.163,0.14-0.326,0.279-0.489,0.42c-0.023,0.02-0.042,0.039-0.065,0.057
	c-0.019,0.02-0.042,0.039-0.065,0.056c-0.116,0.104-0.237,0.209-0.358,0.315c-0.158,0.142-0.316,0.287-0.475,0.433
	c-0.028,0.026-0.056,0.051-0.084,0.077c-0.047,0.042-0.093,0.086-0.14,0.128c-0.13,0.12-0.261,0.24-0.387,0.362
	c-0.14,0.13-0.274,0.262-0.41,0.393c-0.028,0.029-0.056,0.055-0.088,0.083c-0.009,0.013-0.023,0.023-0.032,0.036
	c-0.023,0.021-0.047,0.042-0.065,0.065c-0.201,0.192-0.396,0.388-0.586,0.584c-0.065,0.063-0.121,0.125-0.182,0.187
	c-0.061,0.062-0.116,0.123-0.177,0.183c-0.074,0.076-0.149,0.15-0.219,0.225c-0.14,0.149-0.275,0.3-0.415,0.449
	c-0.088,0.093-0.177,0.188-0.26,0.28c-0.275,0.306-0.55,0.613-0.815,0.925c-0.274,0.317-0.541,0.639-0.801,0.963
	c-0.08,0.097-0.149,0.195-0.229,0.292c-0.125,0.152-0.247,0.307-0.363,0.464c-0.056,0.07-0.107,0.143-0.163,0.214
	c-0.088,0.118-0.177,0.238-0.266,0.355c-0.158,0.216-0.316,0.432-0.47,0.65c-0.083,0.119-0.167,0.239-0.251,0.359
	c-0.042,0.067-0.094,0.132-0.14,0.2c-0.112,0.163-0.214,0.328-0.321,0.492c-0.075,0.109-0.149,0.216-0.214,0.326
	c-0.219,0.338-0.428,0.678-0.633,1.021c-0.107,0.181-0.214,0.362-0.316,0.541c-0.014,0.03-0.028,0.059-0.047,0.088
	c-0.037,0.071-0.079,0.141-0.116,0.213c-0.047,0.079-0.093,0.16-0.135,0.24C46,52.446,45.967,52.51,45.93,52.575
	c-0.037,0.069-0.074,0.137-0.107,0.206c-0.028,0.045-0.051,0.092-0.074,0.136c-0.061,0.125-0.126,0.249-0.186,0.373
	c-0.023,0.042-0.047,0.085-0.065,0.127c-0.005,0.013-0.014,0.027-0.019,0.039c-0.06,0.124-0.116,0.25-0.177,0.374
	c-0.046,0.09-0.088,0.181-0.13,0.271c-0.004,0.008-0.009,0.016-0.014,0.024c-0.069,0.154-0.135,0.306-0.2,0.458
	c-0.027,0.064-0.06,0.127-0.083,0.19c-0.005,0.007-0.009,0.013-0.009,0.02c-0.07,0.163-0.135,0.324-0.2,0.485
	c-0.028,0.057-0.051,0.115-0.074,0.172c0,0.002,0,0.004,0,0.007c-0.089,0.22-0.172,0.441-0.252,0.661v0.001
	c-0.004,0.001-0.004,0.002-0.004,0.004c-0.061,0.167-0.117,0.333-0.177,0.501c-0.009,0.034-0.018,0.066-0.032,0.1
	c-0.004,0.022-0.014,0.043-0.019,0.065c-0.014,0.035-0.023,0.07-0.033,0.104c-0.028,0.078-0.051,0.157-0.08,0.235
	c-0.027,0.079-0.046,0.158-0.069,0.237c-0.019,0.054-0.033,0.107-0.051,0.16c-0.009,0.036-0.023,0.071-0.033,0.105
	c-0.046,0.168-0.093,0.334-0.135,0.5c-0.037,0.145-0.074,0.287-0.107,0.43c-0.014,0.057-0.028,0.112-0.042,0.169
	c-0.009,0.045-0.019,0.089-0.033,0.135c-0.004,0.041-0.018,0.083-0.022,0.124c-0.033,0.142-0.065,0.284-0.094,0.425
	c0,0.009,0,0.019-0.004,0.03c-0.005,0.024-0.009,0.049-0.014,0.075c-0.019,0.105-0.037,0.212-0.06,0.318
	c-0.01,0.074-0.019,0.149-0.033,0.223c-0.005,0.029-0.009,0.058-0.014,0.087c-0.005,0.024-0.009,0.05-0.014,0.074
	c-0.019,0.129-0.037,0.256-0.056,0.384c0,0.034-0.004,0.068-0.009,0.104c-0.004,0.036-0.009,0.074-0.013,0.11
	c-0.005,0.056-0.014,0.112-0.023,0.166c-0.009,0.127-0.023,0.253-0.033,0.38c0,0.004,0,0.01-0.005,0.017c0,0.018,0,0.035,0,0.053
	c-0.009,0.096-0.019,0.192-0.023,0.289c-0.004,0.087-0.009,0.175-0.014,0.263c0,0.013,0,0.027-0.005,0.041c0,0.005,0,0.011,0,0.017
	c0,0.011,0,0.023,0,0.035c-0.004,0.119-0.009,0.236-0.014,0.353c0,0.062,0,0.123-0.005,0.184c0,0.025,0,0.052,0,0.078
	c0,0.03,0,0.06,0,0.089C43.066,62.897,43.066,63.01,43.071,63.123z"/>
<path fill="#005087" d="M95.59,1.594c6.411-1.156,12.557-1.676,18.354-1.583c6.094,0.097,11.854,0.871,17.138,2.309
	c5.61,1.526,10.727,3.809,15.132,6.841c4.707,3.239,8.623,7.347,11.454,12.296l-56.034,16.452c-0.605-1.669-1.546-3.139-2.775-4.383
	c-1.197-1.216-2.677-2.218-4.39-2.979c-1.677-0.745-3.585-1.262-5.686-1.527c-2.063-0.262-4.316-0.282-6.737-0.037
	c-3.483,0.351-7.012,1.217-10.434,2.479c-3.385,1.25-6.705,2.901-9.796,4.851c-3.096,1.95-6.006,4.221-8.567,6.716
	c-2.588,2.525-4.847,5.313-6.602,8.272c-1.792,3.03-2.901,5.979-3.352,8.734c-0.461,2.839-0.219,5.486,0.698,7.797
	c0.95,2.388,2.622,4.419,5.001,5.923c2.458,1.553,5.657,2.536,9.544,2.752c1.225,0.07,2.482,0.061,3.762-0.023
	c1.285-0.085,2.598-0.247,3.92-0.481c1.327-0.233,2.668-0.543,4.009-0.917c1.351-0.377,2.7-0.825,4.042-1.334l15.774,51.47
	c-5.266,2.099-10.573,3.822-15.858,5.145c-5.21,1.304-10.369,2.208-15.42,2.696c-4.944,0.479-9.759,0.559-14.382,0.226
	c-4.507-0.325-8.814-1.035-12.878-2.138c-10.616-2.878-18.438-8.104-23.619-14.723c-4.726-6.028-7.235-13.192-7.776-20.841
	c-0.494-7.014,0.671-14.484,3.329-22.021c2.468-7.001,6.267-14.154,11.337-21.224c4.8-6.693,10.416-12.848,16.487-18.354
	c5.908-5.359,12.404-10.239,19.187-14.489c6.77-4.242,13.996-7.959,21.413-10.96C79.453,5.465,87.446,3.065,95.59,1.594z"/>
<path fill="#002B64" d="M74.271,73.75l15.774,51.47c-0.633,0.253-1.271,0.5-1.904,0.741c-0.042,0.018-0.079,0.031-0.121,0.045
	c-0.461,0.178-0.926,0.347-1.387,0.517c-0.312,0.112-0.62,0.226-0.932,0.339c-0.335,0.118-0.67,0.237-1.005,0.354
	c-0.312,0.109-0.633,0.221-0.945,0.327c-0.331,0.113-0.656,0.221-0.992,0.329c-0.312,0.104-0.624,0.207-0.94,0.31
	c-0.34,0.109-0.68,0.215-1.024,0.321c-0.303,0.096-0.61,0.191-0.917,0.285c-0.321,0.097-0.643,0.192-0.969,0.288
	c-0.335,0.097-0.675,0.2-1.01,0.296c-0.331,0.095-0.666,0.183-0.997,0.274c-0.326,0.09-0.651,0.183-0.978,0.267
	c-0.34,0.092-0.68,0.177-1.02,0.265c-0.317,0.086-0.638,0.166-0.959,0.243c-0.326,0.084-0.652,0.16-0.983,0.238
	c-0.326,0.077-0.647,0.155-0.973,0.229c-0.284,0.066-0.567,0.129-0.856,0.19c-0.396,0.09-0.796,0.176-1.197,0.26
	c-0.288,0.06-0.582,0.118-0.866,0.177c-0.386,0.078-0.773,0.153-1.154,0.228c-0.298,0.057-0.592,0.107-0.885,0.164
	c-0.376,0.066-0.759,0.134-1.131,0.196c-0.298,0.049-0.591,0.102-0.884,0.148c-0.377,0.06-0.754,0.118-1.127,0.171
	c-0.279,0.043-0.559,0.084-0.838,0.123c-0.499,0.072-0.992,0.138-1.481,0.198c-0.228,0.027-0.452,0.061-0.675,0.084
	c-0.689,0.084-1.374,0.157-2.058,0.226c-0.019,0.002-0.042,0.004-0.065,0.008c-0.699,0.066-1.387,0.125-2.081,0.176
	c-0.224,0.018-0.442,0.028-0.662,0.044c-0.475,0.031-0.95,0.063-1.42,0.086c-0.344,0.02-0.689,0.033-1.029,0.051
	c-0.159,0.004-0.317,0.01-0.475,0.016c-0.54,0.018-1.085,0.035-1.62,0.045c-0.061,0.002-0.122,0-0.182,0.002
	c-0.48,0.004-0.959,0.01-1.439,0.006c-0.167-0.002-0.331-0.002-0.498-0.002c-0.392-0.004-0.787-0.01-1.178-0.021
	c-0.158-0.002-0.312-0.006-0.466-0.012c-0.531-0.014-1.061-0.031-1.583-0.061c-0.028,0-0.056-0.002-0.084-0.004
	c-0.498-0.023-0.996-0.057-1.49-0.088c-0.158-0.01-0.312-0.023-0.47-0.035c-0.331-0.026-0.661-0.054-0.997-0.081
	c-0.247-0.023-0.498-0.047-0.745-0.07c-0.293-0.031-0.587-0.061-0.875-0.094c-0.251-0.027-0.494-0.057-0.74-0.087
	c-0.293-0.033-0.586-0.072-0.875-0.113c-0.242-0.031-0.48-0.064-0.726-0.1c-0.289-0.043-0.573-0.086-0.857-0.132
	c-0.237-0.037-0.479-0.076-0.712-0.115c-0.293-0.049-0.582-0.1-0.871-0.156c-0.228-0.038-0.457-0.079-0.68-0.122
	c-0.298-0.059-0.586-0.119-0.879-0.18c-0.219-0.044-0.433-0.089-0.652-0.136c-0.321-0.07-0.647-0.148-0.969-0.224
	c-0.177-0.041-0.354-0.078-0.531-0.123c-0.498-0.123-0.991-0.249-1.48-0.382c-1.611-0.437-3.157-0.929-4.642-1.472
	c-1.472-0.536-2.873-1.122-4.219-1.753c-1.327-0.625-2.593-1.297-3.799-2.01c-1.192-0.702-2.324-1.444-3.395-2.228l17.59,12.807
	c1.08,0.785,2.207,1.533,3.38,2.241c1.196,0.719,2.439,1.398,3.734,2.033c1.308,0.645,2.672,1.246,4.088,1.801
	c1.434,0.563,2.919,1.075,4.456,1.541c0.47,0.138,0.936,0.274,1.411,0.402c0.158,0.043,0.321,0.084,0.484,0.127
	c0.274,0.076,0.554,0.149,0.833,0.222c0.037,0.006,0.074,0.016,0.111,0.025c0.196,0.049,0.396,0.096,0.592,0.143
	c0.284,0.067,0.568,0.136,0.852,0.2c0.214,0.049,0.429,0.09,0.643,0.137c0.205,0.046,0.405,0.093,0.61,0.136
	c0.07,0.014,0.14,0.023,0.21,0.037c0.224,0.047,0.447,0.088,0.675,0.131c0.27,0.05,0.54,0.101,0.811,0.149
	c0.228,0.041,0.451,0.08,0.68,0.115c0.167,0.031,0.335,0.061,0.507,0.088c0.103,0.018,0.209,0.03,0.312,0.046
	c0.233,0.035,0.461,0.07,0.694,0.104c0.275,0.039,0.55,0.08,0.824,0.115c0.233,0.029,0.466,0.061,0.703,0.087
	c0.14,0.016,0.279,0.035,0.415,0.053c0.172,0.02,0.34,0.035,0.507,0.055c0.093,0.01,0.182,0.021,0.27,0.031
	c0.061,0.008,0.116,0.012,0.172,0.018c0.456,0.047,0.917,0.09,1.374,0.127c0.032,0.004,0.061,0.004,0.093,0.008
	c0.004,0,0.009,0,0.014,0c0.48,0.04,0.964,0.071,1.448,0.103c0.154,0.01,0.303,0.02,0.456,0.025
	c0.187,0.012,0.373,0.023,0.563,0.031c0.163,0.01,0.331,0.014,0.494,0.023c0.163,0.004,0.326,0.012,0.484,0.018
	c0.428,0.014,0.852,0.025,1.28,0.033c0.07,0,0.149,0.004,0.219,0.004c0.009,0,0.014,0.004,0.023,0.004
	c0.484,0.006,0.973,0.006,1.461,0.006c0.154,0,0.307-0.004,0.457-0.004c0.209,0,0.415,0,0.619-0.006
	c0.103-0.002,0.205-0.004,0.308-0.008c0.447-0.01,0.894-0.023,1.34-0.039c0.14-0.006,0.28-0.008,0.415-0.014
	c0.051-0.002,0.107-0.006,0.159-0.008c0.638-0.029,1.275-0.063,1.918-0.104c0.647-0.043,1.299-0.095,1.951-0.153
	c0.051-0.004,0.102-0.01,0.153-0.014c0.149-0.012,0.293-0.031,0.433-0.045c0.461-0.045,0.922-0.092,1.378-0.143
	c0.103-0.012,0.205-0.018,0.303-0.032c0.149-0.018,0.302-0.037,0.452-0.055c0.344-0.043,0.689-0.086,1.034-0.131
	c0.135-0.02,0.265-0.033,0.4-0.053c0.135-0.018,0.265-0.041,0.396-0.061c0.345-0.044,0.694-0.097,1.039-0.151
	c0.154-0.023,0.307-0.043,0.456-0.066c0.112-0.02,0.223-0.039,0.335-0.059c0.354-0.058,0.708-0.118,1.066-0.179
	c0.168-0.029,0.335-0.057,0.499-0.084c0.093-0.02,0.182-0.037,0.27-0.053c0.363-0.067,0.727-0.136,1.09-0.208
	c0.186-0.035,0.368-0.068,0.549-0.105c0.074-0.016,0.149-0.029,0.223-0.047c0.298-0.06,0.596-0.122,0.895-0.187
	c0.218-0.047,0.438-0.092,0.656-0.141c0.074-0.013,0.149-0.032,0.219-0.05c0.075-0.016,0.144-0.029,0.219-0.047
	c0.219-0.047,0.438-0.104,0.652-0.152c0.229-0.055,0.457-0.104,0.689-0.161c0.074-0.016,0.149-0.037,0.223-0.055
	c0.293-0.07,0.592-0.145,0.885-0.22c0.223-0.055,0.447-0.111,0.67-0.168c0.074-0.02,0.149-0.041,0.224-0.061
	c0.302-0.077,0.6-0.161,0.898-0.241c0.219-0.061,0.443-0.117,0.657-0.177c0.08-0.023,0.158-0.047,0.233-0.068
	c0.275-0.076,0.544-0.156,0.82-0.233c0.218-0.066,0.433-0.127,0.647-0.189c0.093-0.025,0.182-0.057,0.274-0.082
	c0.27-0.083,0.545-0.169,0.82-0.253c0.2-0.064,0.405-0.124,0.605-0.188c0.112-0.033,0.214-0.068,0.316-0.104
	c0.275-0.088,0.55-0.177,0.824-0.267c0.187-0.064,0.377-0.119,0.559-0.183c0.117-0.039,0.233-0.08,0.349-0.119
	c0.28-0.098,0.564-0.194,0.843-0.292c0.167-0.057,0.335-0.115,0.507-0.174c0.21-0.073,0.424-0.149,0.633-0.228
	c0.028-0.01,0.06-0.021,0.088-0.033c0.037-0.014,0.075-0.027,0.112-0.041c0.145-0.051,0.289-0.103,0.433-0.155
	c0.209-0.08,0.423-0.156,0.633-0.235c0.214-0.082,0.424-0.16,0.633-0.242L85.421,90.356L74.271,73.75z"/>
<path fill="#DB5C1E" d="M165.95,63.626c0-0.135,0.004-0.272,0.004-0.408c0-0.347-0.004-0.692-0.009-1.035c0-0.02,0-0.04,0-0.058
	c-0.004-0.04-0.004-0.078-0.004-0.118c-0.005-0.199-0.014-0.398-0.019-0.597c-0.005-0.171-0.014-0.338-0.023-0.51
	c-0.01-0.208-0.019-0.414-0.028-0.62c-0.009-0.097-0.013-0.195-0.018-0.291c-0.014-0.215-0.033-0.429-0.051-0.644
	c-0.009-0.135-0.019-0.273-0.028-0.407c-0.004-0.051-0.009-0.1-0.014-0.152c-0.009-0.064-0.009-0.129-0.014-0.191
	c-0.028-0.276-0.06-0.548-0.093-0.821c-0.019-0.15-0.033-0.303-0.047-0.452c-0.004-0.031-0.009-0.064-0.009-0.097
	c-0.06-0.45-0.121-0.898-0.191-1.342l-3.301-21.509v0.001v-0.001c0.075,0.475,0.14,0.953,0.195,1.438
	c0.019,0.156,0.028,0.314,0.047,0.472c0.037,0.327,0.069,0.653,0.098,0.985c0.014,0.195,0.028,0.393,0.042,0.59
	c0.023,0.305,0.042,0.612,0.056,0.922c0.009,0.207,0.019,0.418,0.028,0.626c0.009,0.37,0.019,0.739,0.023,1.112
	c0,0.063,0,0.126,0.004,0.189c0.005,0.484-0.004,0.973-0.019,1.464c0,0.083,0,0.166-0.004,0.25
	c-0.014,0.487-0.038,0.977-0.065,1.469c-0.009,0.152-0.019,0.303-0.028,0.454c-0.009,0.126-0.019,0.249-0.028,0.374
	c-0.014,0.184-0.028,0.368-0.047,0.553c-0.009,0.125-0.023,0.253-0.033,0.38c-0.018,0.201-0.042,0.403-0.06,0.605
	c-0.014,0.109-0.023,0.218-0.038,0.328c-0.032,0.313-0.075,0.626-0.111,0.941c-0.07,0.511-0.145,1.024-0.229,1.539
	c-0.019,0.142-0.046,0.287-0.069,0.43c-0.07,0.407-0.14,0.814-0.219,1.225c-0.023,0.12-0.042,0.24-0.07,0.359
	c-0.098,0.521-0.209,1.042-0.326,1.563c-0.018,0.079-0.037,0.159-0.055,0.237c-0.103,0.451-0.21,0.903-0.326,1.355
	c-0.033,0.13-0.065,0.262-0.098,0.392c-0.13,0.506-0.27,1.013-0.414,1.52c-0.009,0.026-0.019,0.053-0.023,0.08
	c-0.158,0.545-0.321,1.09-0.494,1.636c-0.037,0.111-0.074,0.224-0.107,0.335c-0.149,0.456-0.302,0.914-0.461,1.37
	c-0.033,0.102-0.065,0.204-0.103,0.304c-0.19,0.546-0.386,1.09-0.591,1.634c-0.028,0.065-0.056,0.13-0.079,0.193
	c-0.182,0.485-0.377,0.968-0.573,1.452c-0.051,0.132-0.107,0.266-0.163,0.398c-0.447,1.085-0.927,2.17-1.434,3.253
	c-0.065,0.142-0.135,0.286-0.201,0.428c-0.209,0.439-0.423,0.875-0.642,1.314c-0.061,0.116-0.112,0.235-0.172,0.353
	c-0.28,0.547-0.559,1.094-0.853,1.64c-0.061,0.111-0.121,0.224-0.182,0.337c-0.242,0.451-0.489,0.9-0.74,1.348
	c-0.08,0.14-0.159,0.279-0.238,0.419c-0.628,1.108-1.285,2.212-1.974,3.312c-0.093,0.15-0.186,0.3-0.284,0.45
	c-0.177,0.278-0.354,0.557-0.535,0.833c-0.103,0.16-0.209,0.323-0.312,0.48c-0.182,0.28-0.363,0.556-0.549,0.83
	c-0.112,0.163-0.219,0.325-0.331,0.488c-0.187,0.276-0.377,0.556-0.573,0.832c-0.107,0.157-0.214,0.319-0.326,0.477
	c-0.196,0.274-0.392,0.547-0.587,0.82c-0.117,0.167-0.242,0.335-0.358,0.502c-0.191,0.261-0.382,0.521-0.578,0.783
	c-0.135,0.181-0.27,0.357-0.4,0.539c-0.191,0.247-0.377,0.498-0.568,0.746c-0.145,0.185-0.284,0.367-0.428,0.553
	c-0.187,0.243-0.377,0.484-0.573,0.729c-0.149,0.188-0.298,0.383-0.452,0.57c-0.186,0.233-0.373,0.465-0.563,0.697
	c-0.172,0.216-0.354,0.434-0.531,0.652c-0.112,0.134-0.223,0.269-0.34,0.404c-0.223,0.267-0.447,0.532-0.67,0.799
	c-0.098,0.114-0.195,0.231-0.298,0.347c-0.33,0.389-0.665,0.771-1,1.154c-0.038,0.039-0.07,0.08-0.107,0.119
	c-0.284,0.321-0.568,0.643-0.856,0.958c-0.521,0.578-1.053,1.154-1.592,1.727c-0.098,0.107-0.2,0.213-0.298,0.317
	c-0.536,0.563-1.076,1.128-1.625,1.687c-0.028,0.025-0.056,0.053-0.08,0.082c-0.512,0.518-1.033,1.036-1.555,1.548
	c-0.093,0.09-0.187,0.181-0.284,0.274c-0.438,0.429-0.885,0.856-1.336,1.281c-0.102,0.1-0.205,0.194-0.307,0.292
	c-0.54,0.505-1.084,1.009-1.629,1.503c-0.544,0.495-1.094,0.981-1.644,1.465c-0.131,0.114-0.261,0.226-0.391,0.339
	c-0.392,0.343-0.787,0.684-1.188,1.024c-0.135,0.112-0.27,0.228-0.405,0.344c-0.466,0.388-0.931,0.775-1.397,1.159
	c-0.065,0.051-0.126,0.104-0.186,0.153c-0.531,0.433-1.071,0.867-1.611,1.295c-0.135,0.104-0.27,0.209-0.405,0.315
	c-0.4,0.315-0.801,0.629-1.206,0.937c-0.195,0.148-0.391,0.298-0.582,0.444c-0.335,0.253-0.675,0.508-1.011,0.76
	c-0.195,0.144-0.387,0.288-0.582,0.43c-0.368,0.272-0.741,0.54-1.108,0.807c-0.167,0.12-0.331,0.241-0.498,0.36
	c-0.536,0.379-1.066,0.757-1.606,1.129c0,0-0.004,0.004-0.009,0.006c-0.559,0.388-1.117,0.771-1.686,1.152
	c-0.116,0.08-0.237,0.156-0.358,0.238c-0.429,0.284-0.857,0.568-1.29,0.853c-0.145,0.094-0.285,0.183-0.429,0.276
	c-0.414,0.269-0.828,0.532-1.243,0.795c-0.149,0.095-0.307,0.19-0.456,0.288c-0.41,0.255-0.824,0.512-1.238,0.763
	c-0.154,0.094-0.307,0.189-0.461,0.281c-0.424,0.257-0.848,0.512-1.271,0.763c-0.145,0.084-0.285,0.17-0.429,0.255
	c-0.461,0.271-0.926,0.542-1.392,0.807c-0.093,0.053-0.186,0.106-0.279,0.159c-0.568,0.325-1.141,0.643-1.713,0.958
	c-0.578,0.319-1.155,0.633-1.737,0.94c-0.098,0.053-0.195,0.102-0.293,0.154c-0.465,0.251-0.936,0.494-1.406,0.734
	c-0.442,0.229-0.88,0.455-1.322,0.675c-0.103,0.051-0.2,0.098-0.298,0.15c-0.386,0.19-0.773,0.382-1.16,0.57
	c-0.14,0.066-0.279,0.133-0.419,0.203c-0.475,0.228-0.955,0.455-1.434,0.683l11.547,15.557c0.335-0.152,0.675-0.308,1.005-0.464
	c0.093-0.045,0.187-0.086,0.275-0.13c0.121-0.059,0.242-0.115,0.358-0.17c0.126-0.061,0.247-0.118,0.373-0.177
	c0.219-0.107,0.442-0.215,0.661-0.321c0.088-0.047,0.177-0.09,0.27-0.133c0.023-0.012,0.042-0.021,0.065-0.033
	c0.331-0.163,0.661-0.331,0.997-0.496c0.037-0.02,0.074-0.041,0.116-0.061c0.4-0.204,0.801-0.411,1.201-0.619
	c0.089-0.047,0.177-0.09,0.266-0.137c0.009-0.008,0.028-0.018,0.037-0.021c1.02-0.537,2.035-1.092,3.04-1.66
	c0.019-0.012,0.037-0.02,0.056-0.029c0.075-0.043,0.145-0.086,0.224-0.129c0.4-0.228,0.801-0.457,1.196-0.691
	c0.046-0.025,0.084-0.047,0.125-0.072c0.093-0.052,0.182-0.108,0.271-0.163c0.372-0.218,0.74-0.44,1.108-0.66
	c0.06-0.037,0.121-0.072,0.182-0.109c0.083-0.052,0.163-0.103,0.242-0.149c0.354-0.218,0.708-0.438,1.062-0.656
	c0.079-0.055,0.163-0.104,0.242-0.154c0.065-0.04,0.13-0.083,0.196-0.126c0.359-0.222,0.708-0.45,1.062-0.68
	c0.089-0.061,0.182-0.115,0.274-0.176c0.042-0.028,0.089-0.056,0.131-0.087c0.386-0.253,0.773-0.511,1.154-0.768
	c0.075-0.049,0.154-0.102,0.228-0.151l0,0l0,0l0,0c0.019-0.014,0.042-0.027,0.065-0.045c0.493-0.335,0.992-0.672,1.476-1.017
	c0.005-0.002,0.005-0.002,0.01-0.006c0.014-0.008,0.023-0.018,0.037-0.027c0.461-0.325,0.922-0.652,1.378-0.981
	c0.038-0.027,0.075-0.055,0.112-0.08c0.111-0.083,0.223-0.167,0.335-0.249c0.317-0.233,0.638-0.465,0.955-0.701
	c0.069-0.056,0.144-0.11,0.219-0.163c0.107-0.08,0.214-0.162,0.316-0.245c0.154-0.113,0.307-0.227,0.456-0.341
	c0.145-0.109,0.28-0.219,0.424-0.327c0.093-0.076,0.195-0.148,0.289-0.223c0.069-0.056,0.14-0.11,0.209-0.167
	c0.363-0.284,0.726-0.568,1.08-0.856c0.088-0.07,0.177-0.135,0.261-0.205c0.028-0.023,0.051-0.045,0.079-0.066
	c0.475-0.381,0.945-0.769,1.416-1.158c0.009-0.01,0.019-0.02,0.033-0.027c0.051-0.045,0.098-0.09,0.149-0.13
	c0.405-0.341,0.81-0.686,1.21-1.03c0.046-0.037,0.088-0.076,0.135-0.117c0.075-0.064,0.144-0.13,0.224-0.192
	c0.345-0.304,0.689-0.609,1.033-0.917c0.07-0.063,0.145-0.123,0.214-0.188c0.042-0.039,0.089-0.085,0.135-0.124
	c0.973-0.879,1.923-1.771,2.858-2.676c0.038-0.037,0.075-0.074,0.112-0.107c0.06-0.058,0.111-0.116,0.172-0.171
	c0.396-0.386,0.782-0.771,1.168-1.162c0.051-0.053,0.107-0.105,0.158-0.158c0.028-0.025,0.052-0.055,0.08-0.082
	c0.456-0.461,0.908-0.929,1.354-1.397c0.01-0.01,0.019-0.02,0.028-0.029v-0.002l0,0v0.002c0.019-0.025,0.042-0.049,0.065-0.072
	c0.475-0.502,0.94-1.011,1.406-1.521c0.051-0.057,0.107-0.113,0.158-0.174c0.038-0.037,0.07-0.077,0.103-0.114
	c0.47-0.519,0.931-1.046,1.388-1.571c0.032-0.035,0.06-0.07,0.093-0.102c0.056-0.07,0.116-0.141,0.172-0.21
	c0.396-0.462,0.787-0.928,1.173-1.393c0.056-0.07,0.116-0.141,0.177-0.21c0.023-0.031,0.046-0.063,0.07-0.092
	c0.042-0.047,0.08-0.092,0.112-0.137c0.396-0.482,0.777-0.968,1.155-1.454c0.042-0.049,0.084-0.1,0.121-0.152
	c0.089-0.106,0.168-0.216,0.252-0.325c0.167-0.214,0.331-0.428,0.494-0.645c0.135-0.173,0.26-0.345,0.391-0.518
	c0.172-0.228,0.34-0.456,0.508-0.684c0.056-0.078,0.116-0.153,0.172-0.231c0.061-0.088,0.125-0.176,0.191-0.265
	c0.167-0.236,0.34-0.47,0.503-0.705c0.116-0.162,0.232-0.323,0.344-0.487c0.167-0.241,0.335-0.48,0.498-0.724
	c0.061-0.084,0.122-0.166,0.177-0.252c0.052-0.073,0.098-0.151,0.149-0.226c0.168-0.247,0.335-0.492,0.499-0.742
	c0.103-0.151,0.2-0.306,0.303-0.459c0.167-0.255,0.335-0.515,0.498-0.773c0.056-0.083,0.107-0.169,0.163-0.253
	c0.037-0.061,0.075-0.123,0.116-0.183c0.163-0.262,0.326-0.522,0.484-0.783c0.089-0.149,0.182-0.298,0.271-0.443
	c0.154-0.26,0.312-0.519,0.466-0.777c0.055-0.098,0.111-0.19,0.172-0.286c0.023-0.043,0.051-0.09,0.075-0.135
	c0.601-1.028,1.173-2.062,1.722-3.104c0.065-0.125,0.131-0.251,0.196-0.374c0.224-0.429,0.442-0.854,0.652-1.283
	c0.051-0.104,0.103-0.204,0.154-0.308c0.251-0.512,0.498-1.026,0.736-1.542c0.014-0.031,0.032-0.061,0.046-0.092
	c0.037-0.08,0.07-0.161,0.107-0.241c0.116-0.255,0.232-0.508,0.349-0.766c0.07-0.157,0.135-0.319,0.209-0.479
	c0.056-0.133,0.116-0.265,0.168-0.396c0.442-1.028,0.861-2.058,1.248-3.092c0.047-0.123,0.093-0.249,0.14-0.372
	c0.167-0.456,0.331-0.909,0.489-1.365c0.014-0.051,0.038-0.101,0.051-0.155c0.005-0.016,0.014-0.035,0.019-0.051
	c0.177-0.517,0.344-1.034,0.507-1.552c0.033-0.1,0.065-0.201,0.093-0.298c0.135-0.435,0.266-0.867,0.392-1.297
	c0.032-0.113,0.065-0.225,0.098-0.339c0.144-0.519,0.284-1.04,0.418-1.56c0.005-0.023,0.01-0.05,0.019-0.074
	c0.121-0.487,0.237-0.974,0.349-1.46c0.014-0.061,0.033-0.123,0.047-0.185c0.014-0.068,0.028-0.136,0.042-0.207
	c0.098-0.428,0.186-0.859,0.27-1.289c0.019-0.081,0.038-0.162,0.052-0.242c0.098-0.504,0.186-1.006,0.274-1.51
	c0.019-0.116,0.038-0.234,0.056-0.351c0.065-0.394,0.125-0.787,0.176-1.181c0.023-0.141,0.042-0.284,0.061-0.426
	c0.07-0.498,0.13-0.997,0.186-1.494c0.056-0.542,0.103-1.078,0.145-1.612c0.004-0.061,0.009-0.121,0.014-0.181
	c0.005-0.045,0.01-0.089,0.01-0.134c0.032-0.458,0.06-0.913,0.079-1.366c0.005-0.049,0.009-0.099,0.009-0.148
	c0.005-0.041,0.005-0.081,0.005-0.122c0.004-0.083,0.009-0.167,0.014-0.252c0.014-0.396,0.019-0.79,0.023-1.182
	C165.95,63.797,165.95,63.712,165.95,63.626z"/>
<path fill="#F7941E" d="M159.343,24.8c0.685,1.559,1.271,3.187,1.75,4.885c0.484,1.733,0.862,3.537,1.118,5.411
	c0.256,1.911,0.391,3.893,0.391,5.945c-0.005,2.091-0.149,4.255-0.438,6.485c-0.866,6.63-2.989,13.422-6.276,20.207
	c-3.417,7.064-8.05,14.016-13.726,20.649c-5.825,6.808-12.655,13.169-20.253,18.88c-7.659,5.766-15.97,10.766-24.649,14.829
	L79.047,71.653c2.528-1.268,4.978-2.744,7.277-4.392c2.296-1.644,4.433-3.449,6.36-5.376c1.909-1.913,3.599-3.936,5.014-6.028
	c1.401-2.067,2.528-4.191,3.334-6.334c0.279-0.738,0.512-1.463,0.708-2.174c0.191-0.708,0.34-1.399,0.447-2.076
	c0.107-0.672,0.177-1.33,0.205-1.97c0.033-0.637,0.023-1.256-0.023-1.857L159.343,24.8z"/>
<path fill="#FFFFFF" d="M120.988,14.922l11.58-3.768l-13.46,13.807l-16.682-4.002l7.645-2.486c-1.7-0.718-3.51-1.304-5.415-1.754
	c-1.868-0.442-3.832-0.756-5.876-0.939c-2.002-0.179-4.083-0.235-6.229-0.163c-2.114,0.071-4.289,0.263-6.519,0.581
	c-5.578,0.795-11.127,2.313-16.445,4.369c-5.229,2.022-10.327,4.6-15.071,7.582c-4.754,2.985-9.238,6.431-13.218,10.202
	c-4.055,3.845-7.664,8.097-10.551,12.646c-2.998,4.724-4.981,9.392-5.968,13.835c-1.039,4.666-0.978,9.118,0.191,13.118
	c1.234,4.227,3.715,7.96,7.463,10.861c3.962,3.068,9.321,5.196,16.026,5.962c0.242,0.025,0.484,0.055,0.73,0.078
	c0.242,0.023,0.489,0.041,0.735,0.061c0.247,0.017,0.494,0.036,0.746,0.052c0.251,0.018,0.498,0.031,0.75,0.043l-1.532-8.084
	l19.689,5.525l-14.056,24.153l-2.113-11.133c-0.853,0.016-1.705,0.014-2.543-0.005c-0.837-0.016-1.662-0.053-2.477-0.105
	c-0.815-0.051-1.616-0.121-2.412-0.205c-0.787-0.083-1.569-0.185-2.337-0.302c-3.939-0.602-7.496-1.603-10.648-2.963
	c-3.054-1.316-5.717-2.964-7.966-4.896c-2.179-1.873-3.976-4.009-5.377-6.369c-1.351-2.282-2.337-4.772-2.948-7.444
	c-0.591-2.58-0.81-5.251-0.693-7.978c0.112-2.642,0.54-5.341,1.271-8.064c0.708-2.648,1.699-5.329,2.957-8.012
	c1.229-2.62,2.709-5.252,4.437-7.872c1.69-2.567,3.571-5.059,5.615-7.46c2.011-2.362,4.19-4.646,6.514-6.836
	c2.3-2.167,4.749-4.252,7.333-6.237c2.57-1.974,5.275-3.86,8.111-5.64c2.835-1.778,5.727-3.408,8.65-4.881
	c2.928-1.479,5.913-2.808,8.916-3.975c3.036-1.178,6.109-2.199,9.191-3.046c3.129-0.859,6.29-1.546,9.447-2.042
	c2.426-0.382,4.805-0.643,7.133-0.784c2.365-0.145,4.683-0.163,6.937-0.055c2.295,0.112,4.53,0.354,6.686,0.733
	c2.202,0.388,4.33,0.918,6.36,1.596c0.475,0.159,0.946,0.327,1.407,0.5c0.47,0.176,0.926,0.358,1.378,0.551
	c0.452,0.19,0.898,0.39,1.336,0.597C120.126,14.483,120.564,14.698,120.988,14.922z"/>
</svg>
